<svg width="24" height="24" viewBox="0 0 24 24" fill="none" xmlns="http://www.w3.org/2000/svg">
   <path fill-rule="evenodd" clip-rule="evenodd" d="M12.5704 2.62963H11.4296C9.57738 2.62963 8.28621 2.6309 7.28098 2.71303C6.29478 2.7936 5.72818 2.94381 5.29901 3.16249C4.37911 3.6312 3.6312 4.37911 3.16249 5.29901C2.94381 5.72818 2.7936 6.29478 2.71303 7.28098C2.6309 8.28621 2.62963 9.57738 2.62963 11.4296V12.5704C2.62963 14.4226 2.6309 15.7138 2.71303 16.719C2.7936 17.7052 2.94381 18.2718 3.16249 18.701C3.6312 19.6209 4.37911 20.3688 5.29901 20.8375C5.72818 21.0562 6.29478 21.2064 7.28098 21.287C8.28621 21.3691 9.57738 21.3704 11.4296 21.3704H12.5704C14.4226 21.3704 15.7138 21.3691 16.719 21.287C17.7052 21.2064 18.2718 21.0562 18.701 20.8375C19.6209 20.3688 20.3688 19.6209 20.8375 18.701C21.0562 18.2718 21.2064 17.7052 21.287 16.719C21.3691 15.7138 21.3704 14.4226 21.3704 12.5704V11.4296C21.3704 9.57738 21.3691 8.28621 21.287 7.28098C21.2064 6.29478 21.0562 5.72818 20.8375 5.29901C20.3688 4.37911 19.6209 3.6312 18.701 3.16249C18.2718 2.94381 17.7052 2.7936 16.719 2.71303C15.7138 2.6309 14.4226 2.62963 12.5704 2.62963ZM1.71048 4.55917C1 5.95356 1 7.77892 1 11.4296V12.5704C1 16.2211 1 18.0464 1.71048 19.4408C2.33543 20.6674 3.33263 21.6646 4.55917 22.2895C5.95356 23 7.77892 23 11.4296 23H12.5704C16.2211 23 18.0464 23 19.4408 22.2895C20.6674 21.6646 21.6646 20.6674 22.2895 19.4408C23 18.0464 23 16.2211 23 12.5704V11.4296C23 7.77892 23 5.95356 22.2895 4.55917C21.6646 3.33263 20.6674 2.33543 19.4408 1.71048C18.0464 1 16.2211 1 12.5704 1H11.4296C7.77892 1 5.95356 1 4.55917 1.71048C3.33263 2.33543 2.33543 3.33263 1.71048 4.55917Z" fill="#212121"></path><path fill-rule="evenodd" clip-rule="evenodd" d="M12.0004 15.6666C14.0254 15.6666 15.6671 14.025 15.6671 11.9999C15.6671 9.97487 14.0254 8.33324 12.0004 8.33324C9.97535 8.33324 8.33373 9.97487 8.33373 11.9999C8.33373 14.025 9.97535 15.6666 12.0004 15.6666ZM12.0004 17.2962C14.9255 17.2962 17.2967 14.925 17.2967 11.9999C17.2967 9.07485 14.9255 6.70361 12.0004 6.70361C9.07533 6.70361 6.7041 9.07485 6.7041 11.9999C6.7041 14.925 9.07533 17.2962 12.0004 17.2962Z" fill="#212121"></path><path d="M19.1703 6.41866C19.1703 7.16118 18.5684 7.76311 17.8259 7.76311C17.0834 7.76311 16.4814 7.16118 16.4814 6.41866C16.4814 5.67615 17.0834 5.07422 17.8259 5.07422C18.5684 5.07422 19.1703 5.67615 19.1703 6.41866Z" fill="#212121"></path>
</svg>