<svg width="80" height="80" viewBox="0 0 48 48" fill="none" xmlns="http://www.w3.org/2000/svg">
     <path fill-rule="evenodd" clip-rule="evenodd" d="M17.0634 18.4003C17.0634 14.7937 20.0015 11.87 23.6257 11.87C27.25 11.87 30.1881 14.7937 30.1881 18.4003C30.1881 19.2701 30.0172 20.1002 29.707 20.8591H17.5444C17.2343 20.1002 17.0634 19.2701 17.0634 18.4003ZM16.397 20.8591H10.4004V21.3807H16.5981C17.7627 24.0966 20.4708 26.0003 23.6257 26.0003C26.7806 26.0003 29.4887 24.0966 30.6534 21.3807H36.8514V20.8591H30.8544C31.1193 20.0879 31.263 19.2608 31.263 18.4003C31.263 14.2029 27.8437 10.8003 23.6257 10.8003C19.4078 10.8003 15.9885 14.2029 15.9885 18.4003C15.9885 19.2608 16.1322 20.0879 16.397 20.8591ZM29.4663 21.3807C28.3779 23.4886 26.1711 24.9306 23.6257 24.9306C21.0804 24.9306 18.8735 23.4886 17.7851 21.3807H29.4663Z" fill="#152332"></path>
      <!-- ↑マーク -->
     <path fill-rule="evenodd" clip-rule="evenodd" d="M13.7434 32.3999H13.2473L11.1088 37.126H11.6518L12.2082 35.8858H14.7623L15.312 37.126H15.8819L13.7434 32.3999ZM13.4886 33.0166L14.5545 35.4099H12.416L13.4886 33.0166ZM4.09666 32.4333H3.60059V37.1259H4.11677V33.278L7.14687 37.1259H7.5692V32.4333H7.05301V36.1941L4.09666 32.4333ZM20.0582 32.9227H18.4828V32.4333H22.1699V32.9227H20.5945V37.1259H20.0582V32.9227ZM25.7027 32.4333V35.1617C25.7027 36.4891 26.4938 37.1997 27.6535 37.1997C28.8267 37.1997 29.611 36.4891 29.611 35.1215V32.4333H29.0814V35.1617C29.0814 36.1874 28.5317 36.7103 27.6669 36.7103C26.7686 36.7103 26.2323 36.1405 26.2323 35.1282V32.4333H25.7027ZM33.4793 32.4333H35.4971C36.0736 32.4333 36.5362 32.6076 36.8312 32.9026C37.0591 33.1305 37.1932 33.459 37.1932 33.8277V33.8411C37.1932 34.6187 36.6569 35.0746 35.9195 35.2086L37.3608 37.1259H36.7105L35.3496 35.3025H34.0089V37.1259H33.4793V32.4333ZM35.4502 34.8265C36.1541 34.8265 36.6569 34.4645 36.6569 33.8612V33.8478C36.6569 33.2713 36.2144 32.9227 35.4569 32.9227H34.0089V34.8265H35.4502ZM44.3321 32.4333H40.94V37.1259H44.3657V36.6433H41.4696V35.0008H44.0305V34.5182H41.4696V32.916H44.3321V32.4333Z" fill="#152332"></path>
     <!-- ↑マーク下の文字(NATURE)-->
</svg>