<svg width="24" height="24" viewBox="0 0 24 24" fill="none" xmlns="http://www.w3.org/2000/svg">
 <g clip-path="url(#clip0)">
     <path d="M7.72425 21C16.0776 21 20.6485 14.0728 20.6485 8.07579C20.6485 7.8809 20.6485 7.68602 20.6396 7.49114C21.5254 6.85335 22.2961 6.04724 22.9073 5.13484C22.0924 5.49803 21.2154 5.73721 20.2941 5.85236C21.2331 5.29429 21.9506 4.39961 22.2961 3.33661C21.4191 3.85925 20.4447 4.2313 19.4083 4.43504C18.5756 3.54921 17.3975 3 16.0953 3C13.5884 3 11.551 5.0374 11.551 7.54429C11.551 7.89862 11.5953 8.24409 11.6662 8.58071C7.89255 8.39468 4.54413 6.57874 2.30299 3.83268C1.91322 4.50591 1.69177 5.28543 1.69177 6.11811C1.69177 7.69488 2.49787 9.08563 3.71145 9.90059C2.96736 9.87402 2.26755 9.67027 1.65633 9.33366C1.65633 9.35138 1.65633 9.36909 1.65633 9.39567C1.65633 11.5925 3.22425 13.435 5.29708 13.8514C4.91618 13.9577 4.51755 14.0108 4.10122 14.0108C3.80889 14.0108 3.52543 13.9843 3.25082 13.9311C3.82661 15.7382 5.50968 17.0492 7.49393 17.0846C5.93488 18.3071 3.9772 19.0335 1.85122 19.0335C1.48803 19.0335 1.12484 19.0157 0.770508 18.9715C2.77248 20.247 5.16421 21 7.72425 21Z" fill="#212121"></path>
 </g><defs><clipPath id="clip0"><rect width="22" height="22" fill="white" transform="translate(1 1)"></rect></clipPath></defs>
</svg>