<svg width="24" height="24" viewBox="0 0 24 24" fill="none" xmlns="http://www.w3.org/2000/svg">
  <path d="M22.5375 6.65968C22.2875 5.61774 21.5375 4.79516 20.5875 4.50726C18.875 4 12 4 12 4C12 4 5.125 4 3.4 4.50726C2.45 4.78145 1.7125 5.60403 1.45 6.65968C1 8.55161 1 12.5 1 12.5C1 12.5 1 16.4484 1.4625 18.3403C1.7125 19.3823 2.4625 20.2048 3.4125 20.4927C5.125 21 12 21 12 21C12 21 18.875 21 20.6 20.4927C21.55 20.2185 22.2875 19.396 22.55 18.3403C23 16.4484 23 12.5 23 12.5C23 12.5 23 8.55161 22.5375 6.65968ZM9.75 16.0919V8.90806L15.5 12.5L9.75 16.0919Z" fill="#212121"></path>
</svg>